<?xml version="1.0" standalone="no"?>
<!DOCTYPE svg PUBLIC "-//W3C//DTD SVG 20010904//EN"
 "http://www.w3.org/TR/2001/REC-SVG-20010904/DTD/svg10.dtd">
<svg version="1.0" xmlns="http://www.w3.org/2000/svg"
 width="512.000000pt" height="512.000000pt" viewBox="0 0 512.000000 512.000000"
 preserveAspectRatio="xMidYMid meet">
<metadata>
Created by potrace 1.14, written by Peter Selinger 2001-2017
</metadata>
<g transform="translate(0.000000,512.000000) scale(0.100000,-0.100000)"
fill="#000000" stroke="none">
<path d="M2420 4496 c-238 -52 -421 -195 -525 -411 -50 -106 -63 -154 -71
-273 -24 -331 184 -641 500 -747 190 -64 398 -48 581 43 182 90 333 284 381
490 21 86 20 247 -1 338 -21 93 -92 236 -152 306 -97 114 -239 205 -378 242
-84 23 -254 29 -335 12z"/>
<path d="M960 2051 l0 -1091 58 -1 c31 0 68 -2 82 -4 14 -2 81 -9 150 -15 421
-37 874 -148 1210 -295 l104 -45 41 19 c72 34 266 107 380 144 302 97 600 153
978 184 l207 17 0 1088 0 1088 -73 -6 c-631 -49 -1075 -146 -1433 -314 l-101
-47 -56 28 c-83 42 -243 106 -354 140 -317 98 -617 150 -1120 194 l-73 6 0
-1090z m356 814 c447 -63 832 -163 1064 -278 l105 -52 3 -817 2 -817 -62 25
c-277 108 -791 220 -1145 250 l-83 7 -1 46 c-4 268 -3 1651 2 1651 3 0 55 -7
115 -15z m2614 -833 l0 -848 -123 -12 c-349 -35 -697 -108 -1011 -212 -81 -28
-151 -48 -155 -46 -6 4 -6 1615 0 1620 2 2 45 24 94 48 172 86 413 161 692
218 136 27 440 77 486 79 16 1 17 -46 17 -847z"/>
<path d="M1380 2546 c0 -55 3 -76 13 -76 7 0 67 -7 132 -15 238 -31 499 -93
718 -171 38 -13 70 -24 71 -24 2 0 4 36 5 79 l2 80 -128 40 c-241 76 -550 142
-733 157 l-80 7 0 -77z"/>
<path d="M1380 2266 l0 -73 78 -7 c201 -18 489 -82 729 -160 l133 -44 0 72 c0
39 -4 76 -8 81 -13 18 -234 84 -444 134 -136 33 -377 71 -445 71 l-43 0 0 -74z"/>
<path d="M1380 1986 l0 -74 98 -11 c238 -29 471 -81 696 -155 77 -25 141 -46
143 -46 2 0 3 35 3 78 l0 78 -97 32 c-141 45 -262 78 -388 106 -119 27 -370
66 -422 66 l-33 0 0 -74z"/>
<path d="M1380 1708 l0 -74 108 -13 c257 -30 617 -116 815 -196 16 -7 18 -1
16 74 l-2 81 -111 36 c-239 77 -559 146 -742 161 l-84 6 0 -75z"/>
<path d="M1380 1427 l0 -76 58 -6 c242 -28 459 -73 681 -142 80 -24 153 -49
162 -54 36 -19 40 -11 37 68 l-3 77 -45 17 c-192 74 -584 163 -817 185 l-73 7
0 -76z"/>
<path d="M3638 2564 c-35 -15 -68 -61 -68 -96 0 -22 32 -47 69 -54 64 -13 49
-54 -20 -54 -29 0 -38 -4 -43 -22 -10 -39 -7 -41 43 -36 61 6 98 29 117 73 21
52 6 82 -51 96 -68 17 -60 39 19 51 12 2 23 14 27 31 7 25 5 27 -24 26 -18 0
-49 -7 -69 -15z"/>
<path d="M3509 2530 c-11 -6 -19 -30 -24 -66 -12 -101 -21 -107 -35 -25 l-12
73 -31 -6 c-17 -3 -32 -8 -34 -10 -2 -2 -10 -38 -18 -81 -9 -43 -17 -80 -19
-82 -2 -2 -9 31 -15 72 l-13 76 -31 -7 c-18 -3 -33 -8 -35 -9 -3 -3 54 -235
60 -240 1 -2 16 -1 31 2 33 6 42 25 52 106 4 31 11 57 15 57 4 0 12 -31 19
-69 l12 -69 34 11 c34 10 34 11 60 126 15 64 29 124 32 134 5 19 -21 23 -48 7z"/>
<path d="M3170 2448 c-19 -5 -52 -14 -72 -19 l-38 -10 0 -130 c0 -101 3 -130
13 -126 6 2 45 12 85 22 68 17 72 19 72 45 0 27 0 28 -46 18 -51 -11 -51 -11
-56 17 -2 17 5 22 45 29 43 9 47 12 47 39 0 25 -3 28 -22 24 -13 -3 -35 -9
-50 -12 -23 -6 -27 -4 -25 14 1 21 7 24 65 36 27 6 32 11 32 36 0 32 1 32 -50
17z"/>
<path d="M2983 2403 c-20 -4 -22 -11 -25 -76 l-3 -71 -35 57 c-34 57 -44 62
-87 51 -22 -6 -23 -10 -23 -135 0 -71 3 -129 8 -129 4 0 17 3 30 6 21 6 22 12
22 92 l0 86 41 -70 c23 -38 43 -71 45 -72 1 -2 16 -1 33 3 l31 7 0 129 c0 71
-3 128 -7 128 -5 -1 -18 -4 -30 -6z"/>
<path d="M3605 2049 c-90 -9 -257 -40 -385 -70 -89 -21 -102 -25 -292 -84
l-118 -36 0 -81 c0 -72 2 -79 18 -73 177 71 586 171 777 190 33 3 79 8 103 11
l42 5 0 75 0 74 -32 -1 c-18 -1 -69 -5 -113 -10z"/>
<path d="M3610 1773 c-156 -16 -499 -95 -690 -157 l-105 -35 -3 -80 -3 -80
102 35 c238 82 535 147 767 169 l72 7 0 74 0 74 -52 -2 c-29 0 -69 -3 -88 -5z"/>
<path d="M3650 1493 c-202 -19 -441 -71 -727 -159 l-113 -35 0 -81 c0 -72 2
-79 18 -73 178 71 609 175 782 190 41 3 90 8 108 11 l32 5 0 74 0 75 -32 -2
c-18 0 -49 -3 -68 -5z"/>
<path d="M711 2519 c-122 -81 -188 -191 -200 -332 -4 -45 -4 -104 0 -131 11
-63 57 -160 104 -214 31 -36 123 -112 163 -136 9 -6 12 82 12 423 0 244 -4
431 -9 431 -5 0 -36 -18 -70 -41z"/>
<path d="M4340 2121 c0 -237 3 -431 6 -431 15 0 104 73 157 129 123 129 157
310 89 480 -31 78 -126 184 -201 225 l-51 27 0 -430z"/>
</g>
</svg>
